<?xml version="1.0" encoding="UTF-8"?>
<!-- Generated by Pixelmator Pro 3.6.14 -->
<svg width="2500" height="2321" viewBox="0 0 2500 2321" xmlns="http://www.w3.org/2000/svg">
    <path id="Path" fill="#ffffff" stroke="none" d="M 711.818115 913.323853 C 691.716614 898.299561 671.563293 890.787354 651.461792 890.787354 L 561.108521 890.787354 L 561.108521 1432.025879 L 651.513611 1432.025879 C 671.615112 1432.025879 691.768433 1424.513672 711.869934 1409.48938 C 731.971436 1394.465088 742.022217 1371.928589 742.022217 1341.828125 L 742.022217 980.985229 C 741.970398 950.936523 731.867798 928.348145 711.818115 913.323853 Z M 2183.062744 0 L 316.937286 0 C 191.561829 0 89.810844 101.491943 89.5 226.919189 L 89.5 2094.080811 C 89.810844 2219.508057 191.561829 2321 316.937286 2321 L 2183.062744 2321 C 2308.48999 2321 2410.189209 2219.508057 2410.5 2094.080811 L 2410.5 226.919189 C 2410.189209 101.491943 2308.437988 0 2183.062744 0 Z M 888.379883 1342.8125 C 888.379883 1440.263428 828.230774 1587.91626 637.836243 1587.605469 L 397.44696 1587.605469 L 397.44696 730.389648 L 642.913452 730.389648 C 826.521057 730.389648 888.276245 877.835327 888.328125 975.338013 Z M 1409.983276 883.482422 L 1133.950073 883.482422 L 1133.950073 1082.528931 L 1302.688721 1082.528931 L 1302.688721 1235.72522 L 1133.950073 1235.72522 L 1133.950073 1434.719971 L 1410.035034 1434.719971 L 1410.035034 1587.91626 L 1087.8927 1587.91626 C 1030.074951 1589.418701 981.99707 1543.724121 980.546448 1485.90625 L 980.546448 837.735962 C 979.147583 779.969971 1024.894043 731.995728 1082.660034 730.545044 L 1410.035034 730.545044 Z M 1946.921631 1480.777344 C 1878.535156 1640.087036 1756.009155 1608.380615 1701.144287 1480.777344 L 1501.527954 730.596924 L 1670.266724 730.596924 L 1824.188354 1319.757813 L 1977.384766 730.596924 L 2146.175537 730.596924 Z"/>
</svg>
