<?xml version="1.0" encoding="UTF-8"?>
<!-- Generated by Pixelmator Pro 3.6.14 -->
<svg width="256" height="250" viewBox="0 0 256 250" xmlns="http://www.w3.org/2000/svg">
    <g id="Group">
        <path id="Path" fill="#000000" stroke="none" d="M 128.001053 0 C 57.317291 0 0 57.306702 0 128.001053 C 0 184.555283 36.676201 232.535538 87.534935 249.460892 C 93.932022 250.645782 96.280586 246.684158 96.280586 243.303329 C 96.280586 240.251038 96.161888 230.167892 96.106773 219.472183 C 60.496758 227.21524 52.98262 204.369705 52.98262 204.369705 C 47.159958 189.5746 38.770409 185.640533 38.770409 185.640533 C 27.156879 177.696106 39.645821 177.859329 39.645821 177.859329 C 52.49934 178.762299 59.267365 191.049866 59.267365 191.049866 C 70.683769 210.618423 89.211578 204.96109 96.515869 201.690475 C 97.664719 193.417511 100.981956 187.770782 104.642586 184.574356 C 76.2118 181.337662 46.324818 170.362137 46.324818 121.315704 C 46.324818 107.340881 51.325058 95.922363 59.513245 86.958405 C 58.184227 83.734406 53.802921 70.715561 60.753235 53.084366 C 60.753235 53.084366 71.501953 49.64418 95.962639 66.204956 C 106.172966 63.368881 117.123047 61.946594 128.001053 61.897842 C 138.879074 61.946594 149.837631 63.368881 160.067032 66.204956 C 184.498047 49.64418 195.231934 53.084366 195.231934 53.084366 C 202.199203 70.715561 197.815765 83.734406 196.486755 86.958405 C 204.694016 95.922363 209.660339 107.340881 209.660339 121.315704 C 209.660339 170.478729 179.716125 181.303741 151.213287 184.47261 C 155.804428 188.444824 159.89534 196.234512 159.89534 208.17659 C 159.89534 225.303314 159.746964 239.087357 159.746964 243.303329 C 159.746964 246.709595 162.051025 250.700897 168.539246 249.443939 C 219.370438 232.499512 256 184.536209 256 128.001053 C 256 57.306702 198.691193 0 128.001053 0 Z M 47.940559 182.34021 C 47.658646 182.976105 46.658173 183.16687 45.746727 182.730225 C 44.818325 182.312653 44.29689 181.445724 44.597881 180.807709 C 44.873436 180.15274 45.876026 179.970444 46.802311 180.40921 C 47.732834 180.826782 48.262745 181.702194 47.940559 182.34021 Z M 54.23679 187.958252 C 53.626331 188.5242 52.432972 188.261368 51.623268 187.366867 C 50.786007 186.474503 50.629154 185.281143 51.248093 184.706726 C 51.877625 184.140778 53.03495 184.405731 53.874329 185.298096 C 54.71159 186.201065 54.874802 187.385956 54.23679 187.958252 Z M 58.55624 195.146347 C 57.771973 195.691101 56.48959 195.180267 55.696842 194.042007 C 54.912575 192.903763 54.912575 191.538712 55.713799 190.991852 C 56.508667 190.444977 57.771973 190.936737 58.575317 192.066498 C 59.357468 193.223831 59.357468 194.588882 58.55624 195.146347 Z M 65.861359 203.471176 C 65.15976 204.244843 63.665409 204.037125 62.571671 202.981537 C 61.452499 201.949265 61.140911 200.484589 61.844635 199.710922 C 62.554714 198.935135 64.057541 199.153458 65.15976 200.200562 C 66.270454 201.230713 66.609596 202.705978 65.861359 203.471176 Z M 75.302513 206.28154 C 74.99305 207.284134 73.55381 207.739853 72.103973 207.313812 C 70.656258 206.875046 69.708778 205.70076 70.001289 204.687576 C 70.302277 203.678619 71.747871 203.203827 73.208305 203.659546 C 74.653908 204.096191 75.603508 205.261993 75.302513 206.28154 Z M 86.046944 207.473633 C 86.082977 208.529205 84.853584 209.404617 83.33168 209.423706 C 81.8013 209.457611 80.563431 208.603394 80.546471 207.564774 C 80.546471 206.498596 81.748306 205.631653 83.278694 205.606216 C 84.800598 205.576553 86.046944 206.424408 86.046944 207.473633 Z M 96.60215 207.069016 C 96.784439 208.099167 95.72673 209.156876 94.215431 209.438782 C 92.729561 209.710098 91.353912 209.074203 91.16526 208.052536 C 90.98085 206.996948 92.057632 205.939255 93.541382 205.665817 C 95.05481 205.402985 96.409256 206.021912 96.60215 207.069016 Z"/>
    </g>
</svg>
