<?xml version="1.0" encoding="UTF-8"?>
<!-- Generated by Pixelmator Pro 3.6.14 -->
<svg width="192" height="192" viewBox="0 0 192 192" xmlns="http://www.w3.org/2000/svg">
    <path id="Path" fill="#ffffff" stroke="none" d="M 141.537003 88.988297 C 140.710007 88.591904 139.869995 88.210403 139.018997 87.8451 C 137.537003 60.538208 122.615997 44.904999 97.561897 44.744995 C 97.448402 44.744293 97.335503 44.744293 97.222 44.744293 C 82.236397 44.744293 69.773102 51.1409 62.102001 62.780701 L 75.880997 72.232803 C 81.611603 63.5383 90.605202 61.684799 97.2286 61.684799 C 97.305099 61.684799 97.381897 61.684799 97.457603 61.685501 C 105.707001 61.738098 111.931999 64.136597 115.960999 68.814003 C 118.892998 72.219299 120.853996 76.925003 121.824997 82.8638 C 114.511002 81.620697 106.600998 81.238503 98.144997 81.723297 C 74.324699 83.095398 59.011101 96.9879 60.0396 116.292 C 60.561501 126.084 65.439697 134.507996 73.775002 140.011002 C 80.822403 144.662994 89.899002 146.938004 99.332298 146.423004 C 111.790001 145.740005 121.563004 140.987 128.380997 132.296005 C 133.559006 125.695999 136.834 117.142998 138.279999 106.365997 C 144.216995 109.948997 148.617004 114.664001 151.046997 120.332001 C 155.179001 129.966995 155.419998 145.800003 142.501007 158.707993 C 131.182007 170.016006 117.575996 174.908005 97.013496 175.059006 C 74.204201 174.889999 56.9538 167.574997 45.738098 153.317001 C 35.2355 139.966003 29.807699 120.681999 29.6052 96 C 29.807699 71.317802 35.2355 52.0336 45.738098 38.682709 C 56.9538 24.424896 74.203903 17.110001 97.013199 16.940506 C 119.987999 17.111298 137.539001 24.461395 149.184006 38.787994 C 154.893997 45.813599 159.199005 54.648804 162.037003 64.950302 L 178.184006 60.642197 C 174.744003 47.962204 169.330994 37.035706 161.964996 27.973999 C 147.035995 9.606674 125.202003 0.195145 97.069504 0 L 96.956902 0 C 68.881599 0.194473 47.292099 9.6418 32.7883 28.0793 C 19.881901 44.486404 13.2244 67.315697 13.0007 95.932503 L 13 96 L 13.0007 96.067497 C 13.2244 124.683998 19.881901 147.514008 32.7883 163.921005 C 47.292099 182.358002 68.881599 191.806 96.956902 192 L 97.069504 192 C 122.029999 191.826996 139.623993 185.292007 154.117996 170.811005 C 173.080994 151.865997 172.509995 128.119003 166.259995 113.541 C 161.776001 103.086998 153.227005 94.596199 141.537003 88.988297 Z M 98.440498 129.507004 C 88.000504 130.095001 77.154404 125.408997 76.619598 115.372002 C 76.223198 107.93 81.915802 99.625999 99.0812 98.636803 C 101.046997 98.523399 102.975998 98.468002 104.871002 98.468002 C 111.106003 98.468002 116.939003 99.0737 122.241997 100.233002 C 120.264 124.934998 108.662003 128.945999 98.440498 129.507004 Z"/>
</svg>
