<?xml version="1.0" encoding="UTF-8"?>
<!-- Generated by Pixelmator Pro 3.6.14 -->
<svg width="574" height="90" viewBox="0 0 574 90" xmlns="http://www.w3.org/2000/svg">
    <g id="e607aadc-971f-4bdd-9585-e76aecf2dd20">
        <path id="Path" fill="#ffffff" stroke="none" d="M 116.736198 59.008743 L 138.427155 3.032066 L 148.339691 3.032066 L 170.030655 59.008743 L 161.809082 59.008743 L 156.153107 44.081631 L 130.205582 44.081631 L 124.724533 59.008743 L 116.736198 59.008743 Z M 132.712875 37.317783 L 153.645813 37.317783 L 147.115204 19.825073 L 143.325119 9.73761 L 142.916962 9.73761 L 139.243484 19.650146 L 132.712875 37.317783 Z M 176.094803 59.008743 L 176.094803 16.093292 L 181.517532 16.093292 L 182.333862 21.865891 L 182.916946 21.865891 C 186.065638 17.356659 190.885854 15.102043 197.377594 15.102043 L 197.377594 15.102043 C 201.692464 15.102043 204.996643 16.248787 207.290131 18.542274 C 209.622487 20.874636 210.788666 24.606415 210.788666 29.73761 L 210.788666 29.73761 L 210.788666 59.008743 L 203.55835 59.008743 L 203.55835 30.204079 C 203.55835 26.783282 202.800334 24.412048 201.284302 23.090378 C 199.76827 21.729833 197.571966 21.049561 194.695389 21.049561 L 194.695389 21.049561 C 192.635127 21.049561 190.730362 21.554906 188.981094 22.565598 C 187.231827 23.576289 185.832413 25.034014 184.782852 26.938774 C 183.772161 28.843536 183.266815 31.078716 183.266815 33.644314 L 183.266815 33.644314 L 183.266815 59.008743 L 176.094803 59.008743 Z M 235.803253 60 C 230.361074 60 226.182261 58.172984 223.266815 54.518951 C 220.31249 50.864916 218.835327 45.208939 218.835327 37.551018 L 218.835327 37.551018 C 218.835327 30.048589 220.29305 24.431485 223.208496 20.699707 C 226.123952 16.967931 230.108404 15.102043 235.16185 15.102043 L 235.16185 15.102043 C 238.232793 15.102043 240.817825 15.568515 242.916946 16.501457 C 245.054957 17.4344 246.823664 18.930997 248.223068 20.991249 L 248.223068 20.991249 L 248.747864 20.991249 L 248.747864 0 L 255.919861 0 L 255.919861 59.008743 L 250.497131 59.008743 L 249.622498 53.236153 L 249.156021 53.236153 C 247.717738 55.451894 245.851847 57.142855 243.55835 58.309036 C 241.225993 59.436345 238.640961 60 235.803253 60 L 235.803253 60 Z M 237.610825 54.052475 C 241.498103 54.052475 244.316376 52.691931 246.065643 49.970844 C 247.85379 47.249757 248.747864 43.226434 248.747864 37.900875 L 248.747864 37.900875 L 248.747864 37.551018 C 248.747864 32.108843 247.834356 28.007774 246.007339 25.24781 C 244.219193 22.448977 241.420354 21.049561 237.610825 21.049561 L 237.610825 21.049561 C 234.889735 21.049561 232.693431 21.574343 231.021912 22.623909 C 229.389262 23.712344 228.184209 25.442178 227.406754 27.813412 C 226.668167 30.223517 226.298874 33.469386 226.298874 37.551018 L 226.298874 37.551018 L 226.298874 37.900875 C 226.298874 41.904761 226.668167 45.072885 227.406754 47.405247 C 228.184209 49.77648 229.389262 51.467443 231.021912 52.478134 C 232.654572 53.527695 234.850876 54.052475 237.610825 54.052475 L 237.610825 54.052475 Z M 266.823669 59.008743 L 266.823669 16.093292 L 272.304718 16.093292 L 273.121033 22.507286 L 273.645813 22.507286 C 274.462138 20.40816 275.686625 18.639453 277.319275 17.201164 C 278.951925 15.80175 281.089925 15.102043 283.733276 15.102043 L 283.733276 15.102043 C 284.666219 15.102043 285.501984 15.199224 286.24057 15.393585 C 286.979156 15.587952 287.426188 15.704569 287.581665 15.743439 L 287.581665 15.743439 L 287.581665 22.682213 L 284.549591 22.682213 C 281.517527 22.682213 279.010244 23.576286 277.02774 25.364433 C 275.045237 27.113701 274.053986 29.873661 274.053986 33.644314 L 274.053986 33.644314 L 274.053986 59.008743 L 266.823669 59.008743 Z M 312.246399 60 C 305.327067 60 300.176432 58.172984 296.794495 54.518951 C 293.412577 50.864916 291.721619 45.208939 291.721619 37.551018 L 291.721619 37.551018 C 291.721619 29.893097 293.412577 24.237122 296.794495 20.583092 C 300.176432 16.929059 305.327067 15.102043 312.246399 15.102043 L 312.246399 15.102043 C 318.427165 15.102043 323.072449 16.754133 326.182251 20.058311 C 329.253215 23.323616 330.788696 28.610301 330.788696 35.918365 L 330.788696 35.918365 L 330.788696 39.533527 L 299.185181 39.533527 C 299.457275 44.470361 300.642893 48.124393 302.742035 50.495625 C 304.841156 52.866858 308.009277 54.052475 312.246399 54.052475 L 312.246399 54.052475 C 315.667196 54.052475 318.446594 53.255585 320.584595 51.661804 C 322.683716 50.106898 323.733276 47.696791 323.733276 44.431484 L 323.733276 44.431484 L 330.788696 44.431484 C 330.788696 49.40719 329.058848 53.255587 325.599152 55.976677 C 322.139496 58.658892 317.688578 60 312.246399 60 L 312.246399 60 Z M 299.360107 33.527695 L 323.266815 33.527695 C 323.266815 25.208939 319.593343 21.049561 312.246399 21.049561 L 312.246399 21.049561 C 308.164775 21.049561 305.093831 22.040815 303.033569 24.023323 C 301.012187 25.966957 299.787699 29.135081 299.360107 33.527695 L 299.360107 33.527695 Z M 347.231842 59.008743 L 334.34552 16.093292 L 341.809082 16.093292 L 348.39801 40.408165 C 348.825602 42.079689 349.292074 43.98445 349.797424 46.122448 C 350.341634 48.260446 350.710917 49.737609 350.905273 50.553936 L 350.905273 50.553936 L 351.313477 50.553936 L 353.470886 40.408165 L 359.068573 16.093292 L 367.814911 16.093292 L 373.762451 40.408165 C 374.151164 42.079689 374.578766 43.98445 375.045258 46.122448 C 375.511709 48.260446 375.822683 49.737609 375.97818 50.553936 L 375.97818 50.553936 L 376.386353 50.553936 C 376.541829 49.737609 376.872243 48.279883 377.377594 46.180759 C 377.882945 44.120508 378.368856 42.196309 378.835327 40.408165 L 378.835327 40.408165 L 385.365936 16.093292 L 392.421326 16.093292 L 379.476715 59.008743 L 371.6633 59.008743 L 365.482544 33.411079 L 363.500031 24.548103 L 363.150208 24.548103 C 362.99471 25.286685 362.742035 26.550048 362.392181 28.338192 C 362.042328 30.126334 361.673035 31.817296 361.284302 33.411079 L 361.284302 33.411079 L 355.161865 59.008743 L 347.231842 59.008743 Z M 411.6633 59.008743 L 433.354279 3.032066 L 443.266815 3.032066 L 464.957764 59.008743 L 456.736206 59.008743 L 451.0802 44.081631 L 425.132721 44.081631 L 419.651642 59.008743 L 411.6633 59.008743 Z M 427.639984 37.317783 L 448.572937 37.317783 L 442.042328 19.825073 L 438.252228 9.73761 L 437.844055 9.73761 L 434.170593 19.650146 L 427.639984 37.317783 Z M 471.021912 59.008743 L 471.021912 0 L 478.193939 0 L 478.193939 59.008743 L 471.021912 59.008743 Z M 509.214355 60 C 506.376628 60 503.811015 59.436345 501.517517 58.309036 C 499.18516 57.142855 497.319275 55.451894 495.919861 53.236153 L 495.919861 53.236153 L 495.395081 53.236153 L 494.520447 59.008743 L 489.156036 59.008743 L 489.156036 0 L 496.328003 0 L 496.328003 20.991249 L 496.794495 20.991249 C 498.232788 18.930997 500.001506 17.4344 502.100647 16.501457 C 504.238627 15.568515 506.823649 15.102043 509.855713 15.102043 L 509.855713 15.102043 C 514.90918 15.102043 518.893636 16.967931 521.809082 20.699707 C 524.724528 24.431485 526.182251 30.048589 526.182251 37.551018 L 526.182251 37.551018 C 526.182251 45.208939 524.724528 50.864916 521.809082 54.518951 C 518.854736 58.172984 514.656494 60 509.214355 60 L 509.214355 60 Z M 507.406738 54.052475 C 510.205587 54.052475 512.421326 53.527695 514.053955 52.478134 C 515.686646 51.467443 516.872274 49.77648 517.61084 47.405247 C 518.388306 45.072885 518.777039 41.904761 518.777039 37.900875 L 518.777039 37.900875 L 518.777039 37.551018 C 518.777039 33.469386 518.388306 30.223517 517.61084 27.813412 C 516.872274 25.442178 515.667216 23.712344 513.995667 22.623909 C 512.324158 21.574343 510.127848 21.049561 507.406738 21.049561 L 507.406738 21.049561 C 503.597229 21.049561 500.798411 22.448977 499.010284 25.24781 C 497.222097 28.007774 496.328003 32.108843 496.328003 37.551018 L 496.328003 37.551018 L 496.328003 37.900875 C 496.328003 43.226434 497.202647 47.249757 498.951935 49.970844 C 500.740082 52.691931 503.55835 54.052475 507.406738 54.052475 L 507.406738 54.052475 Z M 546.182251 60 C 542.48938 60 539.204631 59.125365 536.328003 57.376095 C 533.451457 55.626825 532.013184 52.478137 532.013184 47.930031 L 532.013184 47.930031 C 532.013184 42.410108 534.462158 38.639455 539.360107 36.618073 C 544.258057 34.557821 551.332886 33.527695 560.584595 33.527695 L 560.584595 33.527695 L 560.584595 28.804665 C 560.584595 26.316811 559.865438 24.412048 558.427124 23.090378 C 557.02771 21.729833 554.481567 21.049561 550.788696 21.049561 L 550.788696 21.049561 C 547.29012 21.049561 544.782817 21.710396 543.266785 23.032066 C 541.789653 24.314868 541.051086 25.908649 541.051086 27.813412 L 541.051086 27.813412 L 541.051086 28.804665 L 534.112305 28.804665 C 534.073405 28.493683 534.053955 27.891157 534.053955 26.997086 L 534.053955 26.997086 C 534.053955 23.187561 535.628316 20.252673 538.777039 18.192421 C 541.92572 16.132169 546.143412 15.102043 551.430115 15.102043 L 551.430115 15.102043 C 556.755636 15.102043 560.798381 16.209913 563.55835 18.425652 C 566.357178 20.68027 567.756592 23.848395 567.756592 27.930027 L 567.756592 27.930027 L 567.756592 51.195332 C 567.756592 52.167151 568.028707 52.886297 568.572937 53.352768 C 569.117167 53.819239 569.797445 54.052475 570.61377 54.052475 L 570.61377 54.052475 L 573.879028 54.052475 L 573.879028 58.717201 C 572.440755 59.339162 570.59432 59.650143 568.339722 59.650143 L 568.339722 59.650143 C 566.473796 59.650143 564.918884 59.105925 563.674988 58.01749 C 562.431051 56.890184 561.575846 55.393586 561.109375 53.527699 L 561.109375 53.527699 L 560.584595 53.527699 C 559.107422 55.549076 557.105489 57.142855 554.578796 58.309036 C 552.052063 59.436345 549.253215 60 546.182251 60 L 546.182251 60 Z M 548.048157 54.052475 C 550.186178 54.052475 552.20756 53.60544 554.112305 52.711369 C 556.017049 51.856169 557.57196 50.573371 558.777039 48.862972 C 559.982076 47.152574 560.584595 45.072884 560.584595 42.623901 L 560.584595 42.623901 L 560.584595 39.533527 C 553.548665 39.533527 548.281413 40.077744 544.782837 41.166176 C 541.245402 42.293488 539.476685 44.41205 539.476685 47.521862 L 539.476685 47.521862 C 539.476685 49.854226 540.195841 51.525754 541.634155 52.536446 C 543.111328 53.547132 545.249329 54.052475 548.048157 54.052475 L 548.048157 54.052475 Z"/>
    </g>
    <g id="46566576-4ea8-4673-b638-802f6278e467">
        <path id="path1" fill="#ffffff" stroke="none" d="M 89.141235 41.780262 L 97.368103 27.531635 L 89.141235 13.284355 L 72.690186 13.284355 L 65.588699 25.584366 L 53.688885 25.584366 L 46.587406 13.284355 L 32.411301 13.284355 L 25.308475 0.983002 L 8.857425 0.983002 L 0.6319 15.230278 L 8.857425 29.478905 L 23.032188 29.478905 L 28.845785 39.545609 L 21.576439 52.13435 L 28.347555 63.860931 L 20.913023 76.735718 L 29.13855 90.983002 L 45.5896 90.983002 L 52.500385 79.016037 L 67.862305 79.016037 L 76.08918 64.768753 L 68.892349 52.302219 L 74.965126 41.781605 L 89.141235 41.781605 Z M 74.961098 17.216492 L 86.871666 17.216492 L 92.828957 27.532978 L 86.871666 37.848122 L 74.961098 37.848122 L 69.006493 27.532978 L 74.961098 17.216492 Z M 5.171046 15.230278 L 11.128342 4.915138 L 23.040245 4.915138 L 28.996195 15.230278 L 23.040245 25.545425 L 11.128342 25.545425 L 5.171046 15.230278 Z M 32.40593 17.216492 L 44.317829 17.216492 L 50.273785 27.532978 L 44.317829 37.848122 L 32.40593 37.848122 L 26.451323 27.532978 L 32.40593 17.216492 Z M 32.072876 41.819206 L 43.984783 41.819206 L 49.940731 52.135696 L 43.984783 62.449493 L 32.072876 62.449493 L 26.116928 52.135696 L 32.072876 41.819206 Z M 43.31868 87.052208 L 31.408121 87.052208 L 25.452168 76.735718 L 31.408121 66.420578 L 43.31868 66.420578 L 49.275978 76.735718 L 43.31868 87.052208 Z M 65.596764 75.085251 L 53.68486 75.085251 L 47.727566 64.767418 L 53.68486 54.450928 L 65.596764 54.450928 L 71.551369 64.767418 L 65.596764 75.085251 Z M 65.596764 50.146793 L 53.683517 50.146793 L 47.727566 39.83165 L 53.683517 29.517849 L 65.596764 29.517849 L 71.551369 39.83165 L 65.596764 50.146793 Z"/>
    </g>
    <g id="7082520c-fd9f-4f22-b0bb-bcb840e058a4">
        <path id="path2" fill="#ffffff" stroke="none" d="M 117.234131 70.914566 L 116.736198 70.914566 L 116.746361 70.345505 L 120.394463 70.345505 L 120.394463 70.914566 L 119.744102 70.914566 C 119.493446 70.914566 119.327471 70.941663 119.246178 70.995857 C 119.171654 71.050056 119.134392 71.199097 119.134392 71.442978 L 119.134392 71.442978 L 119.134392 78.617233 C 119.134392 78.854345 119.164879 79.006775 119.225853 79.074524 C 119.280047 79.142268 119.408763 79.17614 119.612 79.17614 L 119.612 79.17614 C 121.5563 79.155815 122.748622 79.108393 123.188965 79.033875 L 123.188965 79.033875 C 123.338008 79.020325 123.439626 78.939028 123.49382 78.789986 C 123.548019 78.640948 123.642863 78.187052 123.778351 77.428299 L 123.778351 77.428299 L 124.276283 77.458786 L 123.798676 79.826492 L 116.929276 79.826492 L 116.919113 79.277756 L 117.31543 79.277756 C 117.660929 79.277756 117.854004 79.254044 117.894653 79.206619 L 117.894653 79.206619 C 117.955622 79.152425 117.986107 78.993225 117.986107 78.729019 L 117.986107 78.729019 L 117.986107 71.371849 C 117.986107 71.175387 117.935298 71.050056 117.833679 70.995857 L 117.833679 70.995857 C 117.732061 70.941663 117.532211 70.914566 117.234131 70.914566 L 117.234131 70.914566 Z M 132.517532 75.172379 L 132.517532 75.172379 C 132.517532 74.352656 132.656413 73.62439 132.934174 72.987579 L 132.934174 72.987579 C 133.211924 72.337219 133.584524 71.808802 134.051971 71.402328 L 134.051971 71.402328 C 134.526194 70.989085 135.054611 70.67407 135.637222 70.457283 L 135.637222 70.457283 C 136.206284 70.247271 136.812607 70.142265 137.456192 70.142265 L 137.456192 70.142265 C 138.309779 70.142265 139.092239 70.318405 139.803574 70.670685 L 139.803574 70.670685 C 140.535222 71.029734 141.141546 71.595408 141.622543 72.367706 L 141.622543 72.367706 C 142.096756 73.11291 142.333862 74.020701 142.333862 75.09108 L 142.333862 75.09108 C 142.333862 75.734665 142.232244 76.340988 142.029007 76.910049 C 141.818995 77.479111 141.507365 78.007525 141.094116 78.495293 C 140.687642 78.976285 140.166005 79.355662 139.529205 79.633423 L 139.529205 79.633423 C 138.878845 79.911179 138.150579 80.053444 137.344406 80.060219 L 137.344406 80.060219 C 136.572108 80.060219 135.870941 79.921341 135.240906 79.643585 C 134.604095 79.372599 134.096003 79.003385 133.716629 78.535942 L 133.716629 78.535942 C 133.33048 78.068499 133.035787 77.54686 132.83255 76.971024 L 132.83255 76.971024 C 132.622538 76.374863 132.517532 75.775314 132.517532 75.172379 Z M 133.797928 74.715088 L 133.797928 74.715088 C 133.797928 75.487391 133.943578 76.23937 134.234879 76.971024 L 134.234879 76.971024 C 134.512639 77.675573 134.966537 78.261571 135.596573 78.729019 L 135.596573 78.729019 C 136.206284 79.203237 136.914225 79.443733 137.720398 79.450508 L 137.720398 79.450508 C 138.655284 79.450508 139.437744 79.101618 140.06778 78.403839 L 140.06778 78.403839 C 140.711365 77.699285 141.033157 76.713587 141.033157 75.446747 L 141.033157 75.446747 C 141.033157 74.017314 140.640228 72.872411 139.85437 72.012039 L 139.85437 72.012039 C 139.075297 71.158447 138.174281 70.728264 137.151321 70.721489 L 137.151321 70.721489 C 136.799047 70.721489 136.439997 70.789235 136.074173 70.924728 C 135.708349 71.060216 135.352687 71.263453 135.007187 71.534439 L 135.007187 71.534439 C 134.634588 71.825745 134.339895 72.242378 134.123108 72.78434 L 134.123108 72.78434 C 133.906321 73.319532 133.797928 73.963114 133.797928 74.715088 Z M 150.97142 75.589005 L 150.97142 75.589005 C 150.97142 74.694768 151.181432 73.841176 151.601456 73.028229 C 152.014704 72.215281 152.637965 71.537824 153.471237 70.995857 L 153.471237 70.995857 C 154.311284 70.453896 155.280045 70.182915 156.377518 70.182915 L 156.377518 70.182915 C 157.23789 70.182915 158.206655 70.403086 159.283813 70.84343 L 159.283813 70.84343 L 159.283813 70.121941 L 159.852875 70.121941 L 159.944336 73.231461 L 159.395584 73.241623 L 159.293961 71.768158 C 159.239772 71.720734 159.117833 71.63944 158.928146 71.524277 L 158.928146 71.524277 C 158.758784 71.409108 158.420054 71.270228 157.911957 71.107635 L 157.911957 71.107635 C 157.417419 70.951823 156.865295 70.873917 156.255585 70.873917 L 156.255585 70.873917 C 155.591675 70.873917 155.002289 70.985697 154.487427 71.209259 C 153.96578 71.439596 153.545756 71.744451 153.227356 72.123825 L 153.227356 72.123825 C 152.915731 72.503199 152.675232 72.926608 152.505859 73.394051 L 152.505859 73.394051 C 152.336497 73.868268 152.251816 74.372973 152.251816 74.908165 L 152.251816 74.908165 C 152.251816 76.100487 152.63119 77.157318 153.389938 78.078659 C 154.148687 79 155.158096 79.46067 156.418167 79.46067 L 156.418167 79.46067 C 156.89239 79.46067 157.342901 79.392924 157.769699 79.257431 C 158.196498 79.128718 158.484416 79.003387 158.633453 78.881439 L 158.633453 78.881439 L 158.877335 78.678207 L 158.877335 76.137749 L 157.190475 76.137749 L 157.170151 75.57885 L 161.102783 75.57885 L 161.11293 76.137749 L 160.02562 76.137749 L 160.02562 79.044037 L 159.233002 79.389534 C 158.758779 79.606321 158.447149 79.745199 158.298111 79.806168 L 158.298111 79.806168 C 158.121974 79.867142 157.817118 79.941663 157.383545 80.029732 L 157.383545 80.029732 C 156.970296 80.1178 156.557048 80.161835 156.143799 80.161835 L 156.143799 80.161835 C 155.263112 80.161835 154.494202 80.036504 153.837067 79.785843 L 153.837067 79.785843 C 153.166382 79.535187 152.624415 79.193075 152.211166 78.759506 L 152.211166 78.759506 C 151.811467 78.353032 151.503225 77.872037 151.286438 77.316521 L 151.286438 77.316521 C 151.076426 76.781329 150.97142 76.20549 150.97142 75.589005 Z M 169.577744 70.914566 L 168.978195 70.914566 L 168.988358 70.345505 L 172.565323 70.345505 L 172.565323 70.914566 L 172.321442 70.914566 C 171.955617 70.914566 171.715118 70.945051 171.599945 71.00602 L 171.599945 71.00602 C 171.505107 71.060219 171.457687 71.246521 171.457687 71.564926 L 171.457687 71.564926 L 171.457687 78.617233 C 171.457687 78.928864 171.494949 79.115166 171.569473 79.17614 C 171.643987 79.243884 171.860769 79.277756 172.219818 79.277756 L 172.219818 79.277756 L 172.778732 79.277756 L 172.788895 79.826492 L 169.150955 79.826492 L 169.140793 79.277756 L 169.506622 79.277756 C 169.885997 79.277756 170.11294 79.243884 170.187454 79.17614 C 170.261978 79.108396 170.29924 78.932256 170.29924 78.64772 L 170.29924 78.64772 L 170.29924 71.422653 C 170.29924 71.171997 170.265366 71.026347 170.197617 70.985703 L 170.197617 70.985703 C 170.123103 70.938278 169.916478 70.914566 169.577744 70.914566 L 169.577744 70.914566 Z M 181.040298 75.365448 L 181.040298 75.365448 C 181.040298 74.5796 181.199498 73.837786 181.517899 73.140007 L 181.517899 73.140007 C 181.836309 72.476102 182.249557 71.947688 182.757645 71.554764 L 182.757645 71.554764 C 183.265742 71.16184 183.821259 70.856984 184.424194 70.640198 C 185.033905 70.423411 185.623291 70.315018 186.192352 70.315018 L 186.192352 70.315018 C 186.781738 70.315018 187.303375 70.352277 187.757263 70.426796 L 187.757263 70.426796 C 188.184072 70.49454 188.495707 70.565674 188.692169 70.640198 L 188.692169 70.640198 C 188.902171 70.714717 189.017334 70.751976 189.037659 70.751976 L 189.037659 70.751976 C 189.152832 70.751976 189.217194 70.728266 189.230743 70.680847 L 189.230743 70.680847 C 189.251068 70.626648 189.26123 70.518255 189.26123 70.355667 L 189.26123 70.355667 L 189.26123 70.233719 L 189.799805 70.233719 C 189.826904 71.13474 189.884486 72.039144 189.972549 72.94693 L 189.972549 72.94693 L 189.464462 72.957092 C 189.444138 72.78773 189.430588 72.655627 189.423813 72.560783 L 189.423813 72.560783 C 189.423813 72.520134 189.420425 72.4761 189.413651 72.42868 C 189.406876 72.388031 189.403488 72.350769 189.403488 72.316895 C 189.396713 72.2898 189.393326 72.26609 189.393326 72.245766 L 189.393326 72.245766 C 189.373001 72.171247 189.362839 72.100113 189.362839 72.032364 L 189.362839 72.032364 C 189.362839 71.99172 189.349289 71.940913 189.322189 71.879944 L 189.322189 71.879944 C 189.322189 71.866394 189.312027 71.852844 189.291702 71.839294 C 189.271388 71.81897 189.26123 71.802032 189.26123 71.788483 L 189.26123 71.788483 C 189.240906 71.747833 189.207031 71.717346 189.159607 71.697021 L 189.159607 71.697021 C 189.132507 71.676702 189.112183 71.663155 189.098633 71.65638 C 189.078308 71.649605 189.057983 71.64283 189.037659 71.636055 L 189.037659 71.636055 C 189.030884 71.636055 189.017334 71.62928 188.997009 71.61573 C 188.98347 71.60218 188.96315 71.588633 188.93605 71.575089 C 188.908951 71.561539 188.881851 71.547989 188.854752 71.534439 L 188.854752 71.534439 C 188.698939 71.473465 188.61087 71.436203 188.590546 71.422653 L 188.590546 71.422653 C 188.360209 71.300715 188.024867 71.195709 187.584518 71.107635 L 187.584518 71.107635 C 187.13062 71.026347 186.68011 70.985703 186.232986 70.985703 L 186.232986 70.985703 C 185.067774 70.985703 184.112564 71.368464 183.367355 72.133987 L 183.367355 72.133987 C 182.622157 72.913061 182.249557 73.854724 182.249557 74.958977 L 182.249557 74.958977 C 182.249557 76.130974 182.662806 77.170868 183.489304 78.078659 L 183.489304 78.078659 C 184.302251 78.979675 185.325205 79.430183 186.558167 79.430183 L 186.558167 79.430183 C 187.242401 79.430183 187.902924 79.250656 188.539734 78.891602 L 188.539734 78.891602 C 189.183319 78.519002 189.515269 78.210762 189.535583 77.966881 L 189.535583 77.966881 L 189.576233 76.777946 L 190.074173 76.777946 L 189.992874 78.85096 C 189.94545 78.878054 189.877706 78.918701 189.789642 78.9729 L 189.789642 78.9729 C 189.748993 78.993225 189.572856 79.088069 189.26123 79.257431 L 189.26123 79.257431 C 189.003794 79.392924 188.726034 79.521642 188.427948 79.643585 L 188.427948 79.643585 C 188.184072 79.751973 187.84196 79.846817 187.401611 79.928116 L 187.401611 79.928116 C 186.988363 80.00941 186.588664 80.053444 186.202515 80.060219 L 186.202515 80.060219 C 184.590169 80.060219 183.323324 79.636808 182.401978 78.789986 L 182.401978 78.789986 C 181.494191 77.943169 181.040298 76.801656 181.040298 75.365448 Z M 198.356064 81.706436 L 198.356064 81.706436 C 198.356064 81.652237 198.406876 81.587878 198.508499 81.513359 L 198.508499 81.513359 C 198.528814 81.493034 198.640594 81.4219 198.843842 81.299957 L 198.843842 81.299957 C 198.979329 81.211889 199.09788 81.083173 199.199493 80.913811 L 199.199493 80.913811 C 199.301117 80.730899 199.351929 80.524274 199.351929 80.293938 L 199.351929 80.293938 C 199.351929 80.1449 199.318054 80.012797 199.250305 79.897629 L 199.250305 79.897629 C 199.196106 79.79601 199.124975 79.728264 199.036911 79.694389 L 199.036911 79.694389 C 198.982712 79.667295 198.914963 79.62326 198.833664 79.562286 L 198.833664 79.562286 C 198.765925 79.514862 198.732056 79.464053 198.732056 79.409859 L 198.732056 79.409859 C 198.732056 79.301465 198.826899 79.162587 199.016586 78.993225 C 199.206273 78.817088 199.331604 78.729019 199.392578 78.729019 L 199.392578 78.729019 C 199.406128 78.729019 199.480647 78.749341 199.616135 78.789986 L 199.616135 78.789986 C 199.704208 78.817085 199.822764 78.928866 199.971802 79.125328 L 199.971802 79.125328 C 200.114065 79.315015 200.185196 79.558899 200.185196 79.856979 L 200.185196 79.856979 C 200.185196 80.14151 200.124227 80.436203 200.002289 80.741058 C 199.880341 81.045914 199.72791 81.289797 199.544998 81.47271 L 199.544998 81.47271 C 199.253698 81.764015 198.918355 81.909668 198.538971 81.909668 L 198.538971 81.909668 C 198.417033 81.909668 198.356064 81.841924 198.356064 81.706436 Z M 218.740707 70.914566 L 218.242783 70.914566 L 218.252945 70.345505 L 221.901047 70.345505 L 221.901047 70.914566 L 221.260849 70.914566 C 221.003413 70.914566 220.837433 70.941663 220.762909 70.995857 C 220.68162 71.050056 220.640976 71.199097 220.640976 71.442978 L 220.640976 71.442978 L 220.640976 78.617233 C 220.640976 78.854345 220.671463 79.006775 220.732437 79.074524 C 220.793401 79.142268 220.922114 79.17614 221.118576 79.17614 L 221.118576 79.17614 C 223.062881 79.155815 224.258591 79.108393 224.705704 79.033875 L 224.705704 79.033875 C 224.847967 79.020325 224.946198 78.939028 225.000397 78.789986 C 225.054596 78.640948 225.149439 78.187052 225.284927 77.428299 L 225.284927 77.428299 L 225.782867 77.458786 L 225.315414 79.826492 L 218.446014 79.826492 L 218.42569 79.277756 L 218.822006 79.277756 C 219.167506 79.277756 219.363968 79.254044 219.411392 79.206619 L 219.411392 79.206619 C 219.465591 79.152425 219.496078 78.993225 219.502853 78.729019 L 219.502853 78.729019 L 219.502853 71.371849 C 219.502853 71.175387 219.448654 71.050056 219.340256 70.995857 L 219.340256 70.995857 C 219.238632 70.941663 219.038783 70.914566 218.740707 70.914566 L 218.740707 70.914566 Z M 234.237518 70.914566 L 233.637955 70.914566 L 233.658279 70.345505 L 237.225082 70.345505 L 237.225082 70.914566 L 236.991364 70.914566 C 236.618764 70.914566 236.374883 70.945051 236.25972 71.00602 L 236.25972 71.00602 C 236.171646 71.060219 236.127609 71.246521 236.127609 71.564926 L 236.127609 71.564926 L 236.127609 78.617233 C 236.127609 78.928864 236.161484 79.115166 236.229233 79.17614 C 236.303757 79.243884 236.523931 79.277756 236.889755 79.277756 L 236.889755 79.277756 L 237.438492 79.277756 L 237.458817 79.826492 L 233.820877 79.826492 L 233.800552 79.277756 L 234.166382 79.277756 C 234.545756 79.277756 234.776093 79.243884 234.857391 79.17614 C 234.931905 79.108396 234.969162 78.932256 234.969162 78.64772 L 234.969162 78.64772 L 234.969162 71.422653 C 234.969162 71.171997 234.935287 71.026347 234.867538 70.985703 L 234.867538 70.985703 C 234.793015 70.938278 234.583008 70.914566 234.237518 70.914566 L 234.237518 70.914566 Z M 245.334229 70.914566 L 245.324066 70.345505 L 252.62027 70.345505 C 252.627045 71.063604 252.650757 71.808805 252.691406 72.581108 L 252.691406 72.581108 L 252.132492 72.601425 C 252.125727 72.167857 252.10202 71.812195 252.061371 71.534439 L 252.061371 71.534439 C 252.034271 71.290553 252.003789 71.138125 251.969925 71.077156 L 251.969925 71.077156 C 251.929265 71.016187 251.871674 70.978928 251.79715 70.965378 L 251.79715 70.965378 C 251.729411 70.958603 251.495697 70.955215 251.096008 70.955215 L 251.096008 70.955215 L 248.677475 70.955215 C 248.311651 70.955215 248.077927 70.9857 247.976303 71.046669 L 247.976303 71.046669 C 247.895014 71.107638 247.85437 71.297325 247.85437 71.61573 L 247.85437 71.61573 L 247.85437 73.59729 C 247.85437 73.875046 247.874695 74.037636 247.915344 74.08506 L 247.915344 74.08506 C 247.955983 74.139254 248.091471 74.166351 248.321808 74.166351 L 248.321808 74.166351 L 250.476135 74.166351 C 250.720011 74.166351 250.869044 74.132479 250.923233 74.064735 C 250.977432 73.996991 251.004532 73.803917 251.004532 73.485512 L 251.004532 73.485512 L 251.004532 72.936768 L 251.532959 72.936768 L 251.532959 76.330826 L 251.004532 76.330826 L 251.004532 75.609329 C 251.004532 75.216405 250.977432 74.982684 250.923233 74.908165 C 250.869044 74.833646 250.730169 74.796387 250.506607 74.796387 L 250.506607 74.796387 L 248.37262 74.796387 C 248.142283 74.796387 248.00002 74.823486 247.945831 74.877686 C 247.884857 74.938655 247.85437 75.057208 247.85437 75.233345 L 247.85437 75.233345 L 247.85437 78.596909 C 247.85437 78.867894 247.878077 79.047422 247.925491 79.13549 L 247.925491 79.13549 C 247.979691 79.230334 248.098251 79.277756 248.281174 79.277756 L 248.281174 79.277756 L 249.226212 79.277756 L 249.226212 79.826492 L 245.57811 79.826492 L 245.57811 79.277756 L 245.994751 79.277756 C 246.333486 79.277756 246.536723 79.250656 246.604462 79.196457 C 246.672211 79.135488 246.706085 78.979675 246.706085 78.729019 L 246.706085 78.729019 L 246.706085 71.524277 C 246.706085 71.219421 246.648499 71.039897 246.533325 70.985703 L 246.533325 70.985703 C 246.438487 70.938278 246.038788 70.914566 245.334229 70.914566 L 245.334229 70.914566 Z M 260.881836 70.914566 L 260.861511 70.345505 L 268.198364 70.345505 C 268.205139 71.063604 268.228851 71.808805 268.269501 72.581108 L 268.269501 72.581108 L 267.710602 72.601425 C 267.697052 72.167857 267.67334 71.812195 267.639465 71.534439 L 267.639465 71.534439 C 267.612366 71.290553 267.578491 71.138125 267.537842 71.077156 L 267.537842 71.077156 C 267.503967 71.016187 267.446381 70.978928 267.365082 70.965378 L 267.365082 70.965378 C 267.304128 70.958603 267.073792 70.955215 266.674072 70.955215 L 266.674072 70.955215 L 264.255585 70.955215 C 263.882985 70.955215 263.649261 70.9857 263.554413 71.046669 L 263.554413 71.046669 C 263.473114 71.107638 263.432465 71.297325 263.432465 71.61573 L 263.432465 71.61573 L 263.432465 73.59729 C 263.432465 73.875046 263.449402 74.037636 263.483276 74.08506 L 263.483276 74.08506 C 263.530701 74.139254 263.669576 74.166351 263.899902 74.166351 L 263.899902 74.166351 L 266.044067 74.166351 C 266.294718 74.166351 266.447144 74.129092 266.501343 74.054573 L 266.501343 74.054573 C 266.555542 73.986829 266.586029 73.78698 266.592804 73.455025 L 266.592804 73.455025 L 266.592804 72.916443 L 267.111053 72.936768 L 267.111053 76.330826 L 266.592804 76.330826 L 266.592804 75.589005 C 266.592804 75.196081 266.565704 74.969134 266.511505 74.908165 L 266.511505 74.908165 C 266.457306 74.833646 266.311646 74.796387 266.074524 74.796387 L 266.074524 74.796387 L 263.940552 74.796387 C 263.717 74.796387 263.574738 74.823486 263.513763 74.877686 C 263.459564 74.938655 263.432465 75.057208 263.432465 75.233345 L 263.432465 75.233345 L 263.432465 78.596909 C 263.432465 78.84757 263.459564 79.006775 263.513763 79.074524 C 263.574738 79.142268 263.696676 79.17614 263.879578 79.17614 L 263.879578 79.17614 C 265.857747 79.16259 267.026367 79.13549 267.385437 79.094841 L 267.385437 79.094841 C 267.737691 79.054197 267.940918 78.949191 267.995117 78.779823 L 267.995117 78.779823 L 268.00531 78.759506 L 268.00531 78.749344 L 268.239014 77.550247 L 268.726776 77.631538 L 268.371124 79.826492 L 261.156219 79.826492 L 261.156219 79.277756 L 261.522034 79.277756 C 261.901408 79.277756 262.121582 79.254044 262.182556 79.206619 L 262.182556 79.206619 C 262.24353 79.152425 262.274017 78.993225 262.274017 78.729019 L 262.274017 78.729019 L 262.274017 71.524277 C 262.274017 71.239741 262.223206 71.066989 262.121582 71.00602 L 262.121582 71.00602 C 262.006409 70.945051 261.728658 70.914566 261.28833 70.914566 L 261.28833 70.914566 L 260.881836 70.914566 Z M 276.8461 81.706436 L 276.8461 81.706436 C 276.8461 81.652237 276.896901 81.587878 276.998505 81.513359 L 276.998505 81.513359 C 277.018829 81.493034 277.130615 81.4219 277.333862 81.299957 L 277.333862 81.299957 C 277.462565 81.211889 277.577728 81.083173 277.679352 80.913811 L 277.679352 80.913811 C 277.78775 80.730899 277.841949 80.524274 277.841949 80.293938 L 277.841949 80.293938 C 277.841949 80.1449 277.808075 80.012797 277.740326 79.897629 L 277.740326 79.897629 C 277.686127 79.79601 277.61499 79.728264 277.526917 79.694389 L 277.526917 79.694389 C 277.472738 79.667295 277.404999 79.62326 277.3237 79.562286 L 277.3237 79.562286 C 277.255951 79.514862 277.222076 79.464053 277.222076 79.409859 L 277.222076 79.409859 C 277.222076 79.301465 277.316915 79.162587 277.506592 78.993225 C 277.696289 78.817088 277.821625 78.729019 277.882599 78.729019 L 277.882599 78.729019 C 277.896149 78.729019 277.970662 78.749341 278.10614 78.789986 L 278.10614 78.789986 C 278.187439 78.817085 278.306 78.928866 278.461823 79.125328 L 278.461823 79.125328 C 278.604095 79.315015 278.675232 79.558899 278.675232 79.856979 L 278.675232 79.856979 C 278.675232 80.14151 278.614258 80.436203 278.49231 80.741058 C 278.370361 81.045914 278.217936 81.289797 278.035034 81.47271 L 278.035034 81.47271 C 277.743713 81.764015 277.408366 81.909668 277.028992 81.909668 L 277.028992 81.909668 C 276.907064 81.909668 276.8461 81.841924 276.8461 81.706436 Z M 296.742981 79.826492 L 296.732788 79.277756 L 296.905548 79.277756 C 297.169769 79.277756 297.345907 79.230334 297.43396 79.13549 L 297.43396 79.13549 C 297.515259 79.027097 297.671082 78.722242 297.901428 78.220924 L 297.901428 78.220924 L 298.826141 76.178398 L 299.405365 74.867523 C 299.588287 74.488144 299.693288 74.261195 299.720367 74.186676 L 299.720367 74.186676 C 299.767792 74.078283 299.808441 73.990214 299.842316 73.92247 C 299.87619 73.861496 299.896515 73.810687 299.90329 73.770042 L 299.90329 73.770042 L 300.004913 73.526154 L 301.458069 70 L 301.752747 70 C 302.335347 71.517502 303.365082 74.061348 304.841949 77.631538 L 304.841949 77.631538 C 305.1468 78.369967 305.366974 78.8408 305.502472 79.044037 L 305.502472 79.044037 C 305.590546 79.199849 305.78362 79.277756 306.081696 79.277756 L 306.081696 79.277756 L 306.295074 79.277756 L 306.284943 79.826492 L 303.043304 79.826492 L 303.053467 79.277756 L 303.480255 79.277756 C 303.893504 79.277756 304.100128 79.220172 304.100128 79.105003 L 304.100128 79.105003 C 304.100128 79.057584 304.056091 78.911931 303.968018 78.668045 L 303.968018 78.668045 L 302.911194 76.076782 L 299.608582 76.076782 L 298.480621 78.576591 C 298.385793 78.793373 298.338379 78.945801 298.338379 79.033875 L 298.338379 79.033875 C 298.338379 79.142263 298.372253 79.210007 298.440002 79.237106 C 298.507731 79.264206 298.670319 79.277756 298.927765 79.277756 L 298.927765 79.277756 L 299.506989 79.277756 L 299.506989 79.826492 L 296.742981 79.826492 Z M 301.315796 72.083176 L 299.882965 75.446747 L 302.667328 75.446747 L 301.315796 72.083176 Z M 314.170502 70.914566 L 314.150177 70.345505 L 316.365479 70.345505 L 322.188202 77.865265 L 322.188202 71.422653 C 322.188202 71.199097 322.13739 71.056831 322.035767 70.995857 C 321.927368 70.941663 321.720744 70.914566 321.415894 70.914566 L 321.415894 70.914566 L 320.907806 70.914566 L 320.938293 70.345505 L 323.966522 70.345505 L 323.966522 70.914566 L 323.641357 70.914566 C 323.329712 70.914566 323.123088 70.951825 323.021484 71.026344 C 322.919861 71.100863 322.869049 71.270228 322.869049 71.534439 L 322.869049 71.534439 L 322.869049 79.735039 L 322.869049 79.887466 C 322.869049 79.921341 322.862274 79.955213 322.848724 79.989082 C 322.841949 80.016182 322.825012 80.039894 322.797913 80.060219 L 322.797913 80.060219 C 322.791138 80.066994 322.770813 80.070381 322.736938 80.070381 L 322.736938 80.070381 L 322.533691 80.070381 L 322.472717 80.070381 L 322.452423 80.070381 L 322.421906 80.060219 C 322.401581 80.060219 322.388041 80.056831 322.381287 80.050056 C 322.367716 80.036507 322.360931 80.026344 322.360931 80.019569 C 322.360931 80.00602 322.357554 79.995857 322.3508 79.989082 L 322.3508 79.989082 C 322.330475 79.968763 322.313538 79.945053 322.299988 79.917953 L 322.299988 79.917953 C 322.286438 79.904404 322.272888 79.887466 322.259338 79.867142 C 322.245789 79.840042 322.235626 79.823105 322.228851 79.81633 L 322.228851 79.81633 L 316.019958 71.849457 L 316.091095 78.617233 C 316.091095 78.922094 316.145294 79.108396 316.253693 79.17614 L 316.253693 79.17614 C 316.362091 79.243884 316.656779 79.277756 317.137756 79.277756 L 317.137756 79.277756 L 317.381653 79.277756 L 317.381653 79.826492 L 314.394073 79.826492 L 314.394073 79.277756 L 314.831024 79.277756 C 315.081696 79.277756 315.244283 79.240496 315.318787 79.165977 L 315.318787 79.165977 C 315.386536 79.098234 315.42041 78.925481 315.42041 78.64772 L 315.42041 78.64772 L 315.42041 71.077156 L 315.278137 70.914566 L 314.170502 70.914566 Z M 331.872437 70.914566 L 331.831787 70.345505 L 335.672943 70.345505 C 336.56719 70.345505 337.309011 70.382764 337.898407 70.457283 L 337.898407 70.457283 C 338.453908 70.525027 338.965383 70.694392 339.432831 70.965378 L 339.432831 70.965378 C 340.076406 71.358302 340.570953 71.883329 340.916473 72.540459 L 340.916473 72.540459 C 341.248423 73.197589 341.414398 73.925852 341.414398 74.72525 L 341.414398 74.72525 C 341.414398 75.172373 341.363586 75.599172 341.261963 76.005646 L 341.261963 76.005646 C 341.160339 76.439219 340.977427 76.889727 340.713226 77.35717 L 340.713226 77.35717 C 340.421926 77.865262 340.086589 78.281896 339.707214 78.607071 L 339.707214 78.607071 C 339.280416 78.979675 338.738444 79.274368 338.081299 79.49115 L 338.081299 79.49115 C 337.397074 79.714712 336.624776 79.826492 335.764404 79.826492 L 335.764404 79.826492 L 332.085815 79.826492 L 332.075653 79.277756 L 332.461823 79.277756 C 332.814097 79.277756 333.024099 79.250656 333.091827 79.196457 L 333.091827 79.196457 C 333.166351 79.135488 333.203613 78.952576 333.203613 78.64772 L 333.203613 78.64772 L 333.203613 71.422653 C 333.203613 71.171997 333.169749 71.026347 333.10202 70.985703 L 333.10202 70.985703 C 333.027496 70.938278 332.817474 70.914566 332.471954 70.914566 L 332.471954 70.914566 L 331.872437 70.914566 Z M 334.351929 71.676704 L 334.351929 78.617233 C 334.351929 78.922094 334.409505 79.108396 334.524658 79.17614 L 334.524658 79.17614 C 334.626282 79.243884 334.971792 79.277756 335.561188 79.277756 L 335.561188 79.277756 C 336.272512 79.277756 336.89916 79.189687 337.441132 79.01355 L 337.441132 79.01355 C 338.016958 78.837413 338.453908 78.627401 338.751984 78.383514 L 338.751984 78.383514 C 339.083954 78.105759 339.35494 77.787354 339.564941 77.428299 C 339.768188 77.069249 339.913839 76.700038 340.001892 76.320663 L 340.001892 76.320663 C 340.083191 75.948064 340.12384 75.561915 340.12384 75.162216 L 340.12384 75.162216 C 340.12384 74.627024 340.035767 74.125707 339.859619 73.658264 L 339.859619 73.658264 C 339.676717 73.190816 339.405741 72.753855 339.046692 72.347382 L 339.046692 72.347382 C 338.687622 71.947683 338.199849 71.622505 337.583374 71.371849 L 337.583374 71.371849 C 336.960124 71.127963 336.255575 71.00602 335.469727 71.00602 L 335.469727 71.00602 L 334.941315 71.00602 C 334.690643 71.00602 334.531433 71.046666 334.463684 71.12796 L 334.463684 71.12796 C 334.389181 71.222809 334.351929 71.405724 334.351929 71.676704 L 334.351929 71.676704 Z M 359.736176 70.914566 L 359.238251 70.914566 L 359.248413 70.345505 L 362.896515 70.345505 L 362.896515 70.914566 L 362.256317 70.914566 C 361.998891 70.914566 361.832916 70.941663 361.758392 70.995857 C 361.677094 71.050056 361.636444 71.199097 361.636444 71.442978 L 361.636444 71.442978 L 361.636444 78.617233 C 361.636444 78.854345 361.666931 79.006775 361.727905 79.074524 C 361.782104 79.142268 361.910817 79.17614 362.114044 79.17614 L 362.114044 79.17614 C 364.058339 79.155815 365.254049 79.108393 365.701172 79.033875 L 365.701172 79.033875 C 365.843445 79.020325 365.941681 78.939028 365.99588 78.789986 C 366.050079 78.640948 366.144918 78.187052 366.280396 77.428299 L 366.280396 77.428299 L 366.778351 77.458786 L 366.310883 79.826492 L 359.441498 79.826492 L 359.421173 79.277756 L 359.817474 79.277756 C 360.162974 79.277756 360.359436 79.254044 360.40686 79.206619 L 360.40686 79.206619 C 360.46106 79.152425 360.491547 78.993225 360.498322 78.729019 L 360.498322 78.729019 L 360.498322 71.371849 C 360.498322 71.175387 360.444122 71.050056 360.335724 70.995857 L 360.335724 70.995857 C 360.2341 70.941663 360.034251 70.914566 359.736176 70.914566 L 359.736176 70.914566 Z M 374.653748 70.914566 L 374.633423 70.345505 L 381.970306 70.345505 C 381.977061 71.063604 381.997375 71.808805 382.03125 72.581108 L 382.03125 72.581108 L 381.482513 72.601425 C 381.468964 72.167857 381.445251 71.812195 381.411377 71.534439 L 381.411377 71.534439 C 381.384277 71.290553 381.350403 71.138125 381.309753 71.077156 L 381.309753 71.077156 C 381.275879 71.016187 381.218302 70.978928 381.137024 70.965378 L 381.137024 70.965378 C 381.07605 70.958603 380.845713 70.955215 380.446014 70.955215 L 380.446014 70.955215 L 378.027496 70.955215 C 377.654877 70.955215 377.421153 70.9857 377.326324 71.046669 L 377.326324 71.046669 C 377.245026 71.107638 377.204376 71.297325 377.204376 71.61573 L 377.204376 71.61573 L 377.204376 73.59729 C 377.204376 73.875046 377.221313 74.037636 377.255188 74.08506 L 377.255188 74.08506 C 377.302612 74.139254 377.441488 74.166351 377.671814 74.166351 L 377.671814 74.166351 L 379.815948 74.166351 C 380.06664 74.166351 380.219076 74.129092 380.273254 74.054573 L 380.273254 74.054573 C 380.327433 73.986829 380.35792 73.78698 380.364716 73.455025 L 380.364716 73.455025 L 380.364716 72.916443 L 380.882965 72.936768 L 380.882965 76.330826 L 380.364716 76.330826 L 380.364716 75.589005 C 380.364716 75.196081 380.337616 74.969134 380.283417 74.908165 L 380.283417 74.908165 C 380.229218 74.833646 380.083557 74.796387 379.846436 74.796387 L 379.846436 74.796387 L 377.712494 74.796387 C 377.488922 74.796387 377.346649 74.823486 377.285675 74.877686 C 377.231476 74.938655 377.204376 75.057208 377.204376 75.233345 L 377.204376 75.233345 L 377.204376 78.596909 C 377.204376 78.84757 377.231476 79.006775 377.285675 79.074524 C 377.346649 79.142268 377.468597 79.17614 377.65152 79.17614 L 377.65152 79.17614 C 379.629669 79.16259 380.798269 79.13549 381.157318 79.094841 L 381.157318 79.094841 C 381.509593 79.054197 381.71284 78.949191 381.767059 78.779823 L 381.767059 78.779823 L 381.767059 78.759506 L 381.777222 78.749344 L 382.010925 77.550247 L 382.498688 77.631538 L 382.143036 79.826492 L 374.917969 79.826492 L 374.917969 79.277756 L 375.293945 79.277756 C 375.673319 79.277756 375.893494 79.254044 375.954468 79.206619 L 375.954468 79.206619 C 376.015442 79.152425 376.045929 78.993225 376.045929 78.729019 L 376.045929 78.729019 L 376.045929 71.524277 C 376.045929 71.239741 375.995117 71.066989 375.893494 71.00602 L 375.893494 71.00602 C 375.778341 70.945051 375.497203 70.914566 375.050079 70.914566 L 375.050079 70.914566 L 374.653748 70.914566 Z M 390.506226 79.826492 L 390.496063 79.277756 L 390.668823 79.277756 C 390.933024 79.277756 391.109161 79.230334 391.197235 79.13549 L 391.197235 79.13549 C 391.278514 79.027097 391.434326 78.722242 391.664673 78.220924 L 391.664673 78.220924 L 392.589386 76.178398 L 393.16864 74.867523 C 393.351542 74.488144 393.456543 74.261195 393.483643 74.186676 L 393.483643 74.186676 C 393.531067 74.078283 393.571716 73.990214 393.605591 73.92247 C 393.639465 73.861496 393.65978 73.810687 393.666534 73.770042 L 393.666534 73.770042 L 393.768158 73.526154 L 395.221313 70 L 395.516022 70 C 396.098623 71.517502 397.128357 74.061348 398.605225 77.631538 L 398.605225 77.631538 C 398.91685 78.369967 399.137014 78.8408 399.265717 79.044037 L 399.265717 79.044037 C 399.35379 79.199849 399.546875 79.277756 399.844971 79.277756 L 399.844971 79.277756 L 400.05835 79.277756 L 400.048187 79.826492 L 396.806549 79.826492 L 396.816711 79.277756 L 397.24353 79.277756 C 397.656779 79.277756 397.863403 79.220172 397.863403 79.105003 L 397.863403 79.105003 C 397.863403 79.057584 397.819366 78.911931 397.731293 78.668045 L 397.731293 78.668045 L 396.674438 76.076782 L 393.371857 76.076782 L 392.243896 78.576591 C 392.155823 78.793373 392.111786 78.945801 392.111786 79.033875 L 392.111786 79.033875 C 392.111786 79.142263 392.142273 79.210007 392.203247 79.237106 C 392.270996 79.264206 392.433584 79.277756 392.69101 79.277756 L 392.69101 79.277756 L 393.270264 79.277756 L 393.270264 79.826492 L 390.506226 79.826492 Z M 395.079041 72.083176 L 393.64624 75.446747 L 396.430573 75.446747 L 395.079041 72.083176 Z M 408.258972 70.914566 L 407.86264 70.914566 L 407.872803 70.345505 L 411.144928 70.345505 C 411.917206 70.345505 412.506582 70.389539 412.913055 70.477608 L 412.913055 70.477608 C 413.346649 70.586001 413.722646 70.768913 414.041046 71.026344 L 414.041046 71.026344 C 414.718496 71.581861 415.05722 72.245768 415.05722 73.018066 L 415.05722 73.018066 C 415.05722 73.505834 414.89802 73.956342 414.57962 74.369591 L 414.57962 74.369591 C 414.24765 74.789609 413.732778 75.08769 413.035004 75.263832 L 413.035004 75.263832 L 415.758392 78.891602 C 415.968414 79.149038 416.171641 79.277756 416.368073 79.277756 L 416.368073 79.277756 L 416.987976 79.277756 L 417.00827 79.826492 L 414.945435 79.826492 L 411.907043 75.446747 L 411.734283 75.446747 C 411.707204 75.446747 411.67333 75.450134 411.63266 75.456909 C 411.598806 75.456909 411.575104 75.456909 411.561554 75.456909 L 411.561554 75.456909 C 410.965383 75.456909 410.535197 75.42981 410.270996 75.37561 L 410.270996 75.37561 L 410.270996 78.861122 C 410.270996 79.064359 410.31842 79.182912 410.413269 79.216782 L 410.413269 79.216782 C 410.494548 79.257431 410.775686 79.277756 411.256683 79.277756 L 411.256683 79.277756 L 411.97818 79.277756 L 411.947723 79.826492 L 408.157349 79.826492 L 408.157349 79.277756 L 408.492645 79.277756 C 408.804291 79.277756 408.983826 79.257431 409.03125 79.216782 L 409.03125 79.216782 C 409.085449 79.169362 409.112549 79.050809 409.112549 78.861122 L 409.112549 78.861122 L 409.112549 71.422653 C 409.112549 71.205866 409.048187 71.066989 408.919464 71.00602 L 408.919464 71.00602 C 408.763641 70.945051 408.543477 70.914566 408.258972 70.914566 L 408.258972 70.914566 Z M 410.270996 71.564926 L 410.270996 74.908165 C 410.392944 74.996234 410.694417 75.043655 411.175415 75.05043 L 411.175415 75.05043 C 412.035767 75.05043 412.662415 74.90139 413.055359 74.60331 L 413.055359 74.60331 C 413.455037 74.312004 413.654877 73.854721 413.654877 73.231461 L 413.654877 73.231461 C 413.654877 72.554006 413.394053 71.995107 412.872406 71.554764 L 412.872406 71.554764 C 412.357554 71.127965 411.63268 70.914566 410.697784 70.914566 L 410.697784 70.914566 C 410.528432 70.914566 410.413269 70.951825 410.352295 71.026344 L 410.352295 71.026344 C 410.298096 71.087313 410.270996 71.266841 410.270996 71.564926 L 410.270996 71.564926 Z M 424.904053 70.914566 L 424.89389 70.345505 L 427.098969 70.345505 L 432.921722 77.865265 L 432.921722 71.422653 C 432.921722 71.199097 432.870911 71.056831 432.769287 70.995857 C 432.667684 70.941663 432.46106 70.914566 432.149414 70.914566 L 432.149414 70.914566 L 431.651489 70.914566 L 431.671814 70.345505 L 434.700043 70.345505 L 434.700043 70.914566 L 434.374847 70.914566 C 434.063222 70.914566 433.856608 70.951825 433.755005 71.026344 C 433.653381 71.100863 433.60257 71.270228 433.60257 71.534439 L 433.60257 71.534439 L 433.60257 79.735039 L 433.60257 79.887466 C 433.60257 79.921341 433.595795 79.955213 433.582245 79.989082 C 433.57547 80.016182 433.56192 80.039894 433.541595 80.060219 L 433.541595 80.060219 C 433.528046 80.066994 433.504333 80.070381 433.470459 80.070381 L 433.470459 80.070381 L 433.277405 80.070381 L 433.206238 80.070381 L 433.185944 80.070381 L 433.155457 80.060219 C 433.135132 80.060219 433.121582 80.056831 433.114807 80.050056 C 433.108012 80.036507 433.104614 80.026344 433.104614 80.019569 C 433.104614 80.00602 433.09785 79.995857 433.08432 79.989082 L 433.08432 79.989082 C 433.063995 79.968763 433.047058 79.945053 433.033508 79.917953 L 433.033508 79.917953 C 433.019958 79.904404 433.006409 79.887466 432.992859 79.867142 C 432.979309 79.840042 432.969147 79.823105 432.962372 79.81633 L 432.962372 79.81633 L 426.753479 71.849457 L 426.824615 78.617233 C 426.824615 78.922094 426.882202 79.108396 426.997375 79.17614 L 426.997375 79.17614 C 427.098999 79.243884 427.390299 79.277756 427.871277 79.277756 L 427.871277 79.277756 L 428.115173 79.277756 L 428.115173 79.826492 L 425.127594 79.826492 L 425.127594 79.277756 L 425.564575 79.277756 C 425.815226 79.277756 425.977804 79.240496 426.052307 79.165977 L 426.052307 79.165977 C 426.120056 79.098234 426.157318 78.925481 426.164093 78.64772 L 426.164093 78.64772 L 426.164093 71.077156 L 426.011688 70.914566 L 424.904053 70.914566 Z M 443.164825 70.914566 L 442.565308 70.914566 L 442.585632 70.345505 L 446.152435 70.345505 L 446.152435 70.914566 L 445.918732 70.914566 C 445.546112 70.914566 445.302226 70.945051 445.187073 71.00602 L 445.187073 71.00602 C 445.092224 71.060219 445.0448 71.246521 445.0448 71.564926 L 445.0448 71.564926 L 445.0448 78.617233 C 445.0448 78.928864 445.082062 79.115166 445.156586 79.17614 C 445.231089 79.243884 445.447866 79.277756 445.806915 79.277756 L 445.806915 79.277756 L 446.365845 79.277756 L 446.386169 79.826492 L 442.738068 79.826492 L 442.727875 79.277756 L 443.093719 79.277756 C 443.473094 79.277756 443.70343 79.243884 443.784729 79.17614 C 443.859233 79.108396 443.896484 78.932256 443.896484 78.64772 L 443.896484 78.64772 L 443.896484 71.422653 C 443.896484 71.171997 443.86262 71.026347 443.794891 70.985703 L 443.794891 70.985703 C 443.720367 70.938278 443.510345 70.914566 443.164825 70.914566 L 443.164825 70.914566 Z M 454.261566 70.914566 L 454.241272 70.345505 L 456.456543 70.345505 L 462.279266 77.865265 L 462.279266 71.422653 C 462.279266 71.199097 462.228455 71.056831 462.126831 70.995857 C 462.025208 70.941663 461.818583 70.914566 461.506958 70.914566 L 461.506958 70.914566 L 461.009064 70.914566 L 461.029358 70.345505 L 464.057617 70.345505 L 464.057617 70.914566 L 463.732422 70.914566 C 463.420797 70.914566 463.214162 70.951825 463.112518 71.026344 C 463.010915 71.100863 462.960114 71.270228 462.960114 71.534439 L 462.960114 71.534439 L 462.960114 79.735039 L 462.960114 79.887466 C 462.960114 79.921341 462.953339 79.955213 462.939789 79.989082 C 462.933014 80.016182 462.916077 80.039894 462.888977 80.060219 L 462.888977 80.060219 C 462.882202 80.066994 462.861877 80.070381 462.828003 80.070381 L 462.828003 80.070381 L 462.624786 80.070381 L 462.563812 80.070381 L 462.543457 80.070381 L 462.51297 80.060219 C 462.492666 80.060219 462.479116 80.056831 462.472321 80.050056 C 462.458791 80.036507 462.452026 80.026344 462.452026 80.019569 C 462.452026 80.00602 462.448629 79.995857 462.441833 79.989082 L 462.441833 79.989082 C 462.421509 79.968763 462.404582 79.945053 462.391052 79.917953 L 462.391052 79.917953 C 462.377502 79.904404 462.363953 79.887466 462.350403 79.867142 C 462.336853 79.840042 462.326691 79.823105 462.319916 79.81633 L 462.319916 79.81633 L 456.111053 71.849457 L 456.18219 78.617233 C 456.18219 78.922094 456.236369 79.108396 456.344727 79.17614 L 456.344727 79.17614 C 456.453125 79.243884 456.747833 79.277756 457.228851 79.277756 L 457.228851 79.277756 L 457.472717 79.277756 L 457.472717 79.826492 L 454.485138 79.826492 L 454.485138 79.277756 L 454.922089 79.277756 C 455.17274 79.277756 455.335337 79.240496 455.409882 79.165977 L 455.409882 79.165977 C 455.477631 79.098234 455.511505 78.925481 455.511505 78.64772 L 455.511505 78.64772 L 455.511505 71.077156 L 455.369202 70.914566 L 454.261566 70.914566 Z M 472.309021 75.589005 L 472.309021 75.589005 C 472.309021 74.694768 472.519023 73.841176 472.939026 73.028229 C 473.352275 72.215281 473.975535 71.537824 474.808807 70.995857 L 474.808807 70.995857 C 475.648855 70.453896 476.617615 70.182915 477.715088 70.182915 L 477.715088 70.182915 C 478.57546 70.182915 479.54422 70.403086 480.621368 70.84343 L 480.621368 70.84343 L 480.621368 70.121941 L 481.19043 70.121941 L 481.292053 73.231461 L 480.733154 73.241623 L 480.631561 71.768158 C 480.577342 71.720734 480.458781 71.63944 480.275879 71.524277 L 480.275879 71.524277 C 480.106527 71.409108 479.764414 71.270228 479.249542 71.107635 L 479.249542 71.107635 C 478.76177 70.951823 478.213023 70.873917 477.603302 70.873917 L 477.603302 70.873917 C 476.939402 70.873917 476.346629 70.985697 475.824982 71.209259 C 475.303355 71.439596 474.886719 71.744451 474.575073 72.123825 L 474.575073 72.123825 C 474.256673 72.503199 474.012787 72.926608 473.843414 73.394051 L 473.843414 73.394051 C 473.674062 73.868268 473.589386 74.372973 473.589386 74.908165 L 473.589386 74.908165 C 473.589386 76.100487 473.96877 77.157318 474.727539 78.078659 C 475.486287 79 476.495687 79.46067 477.755737 79.46067 L 477.755737 79.46067 C 478.22996 79.46067 478.680471 79.392924 479.107269 79.257431 C 479.540843 79.128718 479.828756 79.003387 479.971008 78.881439 L 479.971008 78.881439 L 480.214905 78.678207 L 480.214905 76.137749 L 478.528046 76.137749 L 478.517883 75.57885 L 482.440369 75.57885 L 482.4505 76.137749 L 481.373352 76.137749 L 481.373352 79.044037 L 480.570587 79.389534 C 480.096364 79.606321 479.784729 79.745199 479.635681 79.806168 L 479.635681 79.806168 C 479.466309 79.867142 479.161458 79.941663 478.72113 80.029732 L 478.72113 80.029732 C 478.314657 80.1178 477.904795 80.161835 477.491547 80.161835 L 477.491547 80.161835 C 476.61085 80.161835 475.841929 80.036504 475.184784 79.785843 L 475.184784 79.785843 C 474.514109 79.535187 473.96877 79.193075 473.548767 78.759506 L 473.548767 78.759506 C 473.149068 78.353032 472.84082 77.872037 472.624023 77.316521 L 472.624023 77.316521 C 472.414022 76.781329 472.309021 76.20549 472.309021 75.589005 Z"/>
    </g>
</svg>
