<?xml version="1.0" encoding="UTF-8"?>
<!-- Generated by Pixelmator Pro 3.6.14 -->
<svg width="99" height="91" viewBox="0 0 99 91" xmlns="http://www.w3.org/2000/svg">
    <g id="46566576-4ea8-4673-b638-802f6278e467-copy">
        <path id="Path" fill="#ffffff" stroke="none" d="M 89.141235 41.780262 L 97.368103 27.531635 L 89.141235 13.284355 L 72.690186 13.284355 L 65.588699 25.584366 L 53.688885 25.584366 L 46.587406 13.284355 L 32.411301 13.284355 L 25.308475 0.983002 L 8.857425 0.983002 L 0.6319 15.230278 L 8.857425 29.478905 L 23.032188 29.478905 L 28.845785 39.545609 L 21.576439 52.13435 L 28.347555 63.860931 L 20.913023 76.735718 L 29.13855 90.983002 L 45.5896 90.983002 L 52.500385 79.016037 L 67.862305 79.016037 L 76.08918 64.768753 L 68.892349 52.302219 L 74.965126 41.781605 L 89.141235 41.781605 Z M 74.961098 17.216492 L 86.871666 17.216492 L 92.828957 27.532978 L 86.871666 37.848122 L 74.961098 37.848122 L 69.006493 27.532978 L 74.961098 17.216492 Z M 5.171046 15.230278 L 11.128342 4.915138 L 23.040245 4.915138 L 28.996195 15.230278 L 23.040245 25.545425 L 11.128342 25.545425 L 5.171046 15.230278 Z M 32.40593 17.216492 L 44.317829 17.216492 L 50.273785 27.532978 L 44.317829 37.848122 L 32.40593 37.848122 L 26.451323 27.532978 L 32.40593 17.216492 Z M 32.072876 41.819206 L 43.984783 41.819206 L 49.940731 52.135696 L 43.984783 62.449493 L 32.072876 62.449493 L 26.116928 52.135696 L 32.072876 41.819206 Z M 43.31868 87.052208 L 31.408121 87.052208 L 25.452168 76.735718 L 31.408121 66.420578 L 43.31868 66.420578 L 49.275978 76.735718 L 43.31868 87.052208 Z M 65.596764 75.085251 L 53.68486 75.085251 L 47.727566 64.767418 L 53.68486 54.450928 L 65.596764 54.450928 L 71.551369 64.767418 L 65.596764 75.085251 Z M 65.596764 50.146793 L 53.683517 50.146793 L 47.727566 39.83165 L 53.683517 29.517849 L 65.596764 29.517849 L 71.551369 39.83165 L 65.596764 50.146793 Z"/>
    </g>
</svg>
